<svg width="661" height="798" viewBox="0 0 661 798" fill="none" xmlns="http://www.w3.org/2000/svg">
<path d="M653.579 609.073L654.232 610.459C658.906 621.372 658.783 633.776 653.842 644.623C648.608 656.004 638.698 664.559 626.674 668.075L626.665 668.077L204.475 792.959L204.471 792.961C185.884 798.488 165.876 791.132 155.296 774.882C155.294 774.88 155.293 774.877 155.291 774.875L9.81436 549.59L9.80861 549.581C0.901721 535.894 0.720298 518.288 9.34324 504.42L9.34822 504.412L306.915 22.4542L306.92 22.4469L306.924 22.4395C314.787 9.53846 329.172 2.08101 344.247 3.09103L344.27 3.09256L344.292 3.09374C359.343 3.87257 372.755 12.8389 379.228 26.4482C379.229 26.4501 379.23 26.4521 379.23 26.454L653.579 609.073ZM595.72 635.661L595.719 635.655C601.359 634.025 606.005 630.013 608.439 624.669C610.878 619.312 610.848 613.155 608.356 607.822L608.353 607.813L371.412 104.656L371.411 104.654C365.194 91.478 345.518 93.6696 342.528 107.993C342.528 107.993 342.528 107.994 342.528 107.994L214.535 720.856L214.533 720.864C211.788 734.18 224.435 745.473 237.472 741.595L595.72 635.661Z" fill="black" stroke="white" stroke-width="6"/>
</svg>
