<svg width="194" height="196" viewBox="0 0 194 196" fill="none" xmlns="http://www.w3.org/2000/svg">
<path d="M155.38 92.4021L193.866 114.621V159.084L155.38 181.303L138.295 171.423L96.7499 195.407L55.4541 171.56L38.6079 181.303L0.12162 159.047V114.621L38.6079 92.4021L77.0942 114.621V159.047L65.4508 165.78L96.7499 183.854L128.298 165.642L116.893 159.047V114.621L155.38 92.4021ZM126.896 126.199V153.32L150.378 166.874V139.753L126.896 126.199ZM183.863 126.162L160.381 139.716V166.874L183.863 153.282V126.162ZM10.1246 126.162V153.282L33.6064 166.836V139.716L10.1246 126.162ZM67.0912 126.162L43.6094 139.716V166.836L67.0912 153.282V126.162ZM155.38 103.98L131.898 117.534L155.38 131.101L178.861 117.534L155.38 103.98ZM38.6079 103.943L15.126 117.534L38.6079 131.063L62.0898 117.534L38.6079 103.943ZM57.751 35.0228V46.5636L22.1406 67.1322V101.905L12.1376 107.682V61.3555L57.751 35.0228ZM96.2373 0L134.749 22.219V34.4376L181.362 61.3555V107.394L171.359 101.617V67.1322L134.749 45.991V66.657L96.2623 88.876L57.776 66.657V22.219L96.2373 0ZM67.7789 33.7599V60.8803L91.2358 74.4343V47.3264L67.7789 33.7599ZM124.721 33.7599L101.264 47.3264V74.4218L124.721 60.8803V33.7599ZM96.2373 11.5534L72.7804 25.1074L96.2373 38.6613L119.719 25.1074L96.2373 11.5534Z" fill="#398CCB"/>
</svg>
